<svg t="1742350653457" class="icon" viewBox="0 0 1024 1024" version="1.1" xmlns="http://www.w3.org/2000/svg" p-id="8925" width="200" height="200"><path d="M277.9 742s167.9-294.1 465.3-465.3C575.7 577.8 277.9 742 277.9 742z" fill="#FFFFFF" p-id="8926"></path><path d="M743.1 742S575.2 447.9 277.8 276.7C445.3 577.8 743.1 742 743.1 742z" fill="#FFFFFF" p-id="8927"></path><path d="M512 512m-448 0a448 448 0 1 0 896 0 448 448 0 1 0-896 0Z" fill="#1881EA" p-id="8928"></path><path d="M512 267.1m-63 0a63 63 0 1 0 126 0 63 63 0 1 0-126 0Z" fill="#FFFFFF" p-id="8929"></path><path d="M512 797.2s63-220.5 63-306.3-25.5-101.5-63-101.5-63 15.8-63 101.5 63 306.3 63 306.3z" fill="#FFFFFF" p-id="8930"></path></svg>